<svg xmlns="http://www.w3.org/2000/svg" aria-hidden="true" style="position:absolute;width:0;height:0;overflow:hidden">
  <defs>
    <symbol id="icon-menu" viewBox="0 0 36 32">
      <path d="M1.199 4.002a2.4 2.4 0 0 1 2.4-2.4h28.8a2.4 2.4 0 1 1 0 4.8h-28.8a2.4 2.4 0 0 1-2.4-2.4zm0 12a2.4 2.4 0 0 1 2.4-2.4h28.8a2.4 2.4 0 1 1 0 4.8h-28.8a2.4 2.4 0 0 1-2.4-2.4zm0 12a2.4 2.4 0 0 1 2.4-2.4h28.8a2.4 2.4 0 1 1 0 4.8h-28.8a2.4 2.4 0 0 1-2.4-2.4z"/>
    </symbol>
    <symbol id="icon-amico" viewBox="0 0 35 32">
      <path fill="#f5f5f5" d="M5.077 29.288c6.769 3.512 17.744 3.512 24.513 0s6.768-9.206 0-12.718c-6.769-3.512-17.744-3.512-24.513 0s-6.769 9.206 0 12.718z" style="fill:var(--color1, #f5f5f5)"/>
      <path fill="#e6e6e6" d="M29.683 20.632c1.319 0 2.389-.506 2.389-1.131s-1.07-1.131-2.389-1.131c-1.319 0-2.389.506-2.389 1.131s1.07 1.131 2.389 1.131zM5.035 27.246c1.21 0 2.19-.464 2.19-1.037s-.981-1.037-2.19-1.037c-1.21 0-2.19.464-2.19 1.037s.981 1.037 2.19 1.037zm16.261 1.993c1.259 0 2.279-.483 2.279-1.079s-1.02-1.079-2.279-1.079-2.279.483-2.279 1.079 1.02 1.079 2.279 1.079zM9.984 24.075c1.259 0 2.279-.483 2.279-1.079s-1.02-1.079-2.279-1.079-2.279.483-2.279 1.079 1.02 1.079 2.279 1.079z" style="fill:var(--color2, #e6e6e6)"/>
      <path fill="#02897a" d="M23.396 16.862c.056-.665 1.591-3.161 2.06-3.547s1.298-1.364.941-1.919-1.407-.308-2.392 1.423c-.764 1.342-1.002 4.311-1.002 4.311l.393-.267z" style="fill:var(--color3, #02897a)"/>
      <path fill="#fff" d="M23.186 16.799h-.006l-.015-.005c-.005-.002-.008-.006-.012-.011a.035.035 0 0 1-.006-.014v-.016c.434-2.786 1.356-4.524 2.818-5.313a.041.041 0 0 1 .031-.003l.014.007a.03.03 0 0 1 .01.012c.003.005.004.01.005.015s0 .011-.001.016l-.007.014a.038.038 0 0 1-.012.01c-1.439.777-2.347 2.496-2.778 5.256-.002.009-.007.018-.014.023s-.016.009-.026.009z" style="fill:var(--color4, #fff)"/>
      <path fill="#37474f" d="M23.55 13.635s1.232-2.115 2.252-3.084c.566-.537.913-.883.882-1.289-.023-.308-.28-.473-.835-.337-1.104.27-1.697 1.381-2.078 2.625-.271.876-.222 2.084-.222 2.084z" style="fill:var(--color5, #37474f)"/>
      <path fill="#00ffe3" d="M23.55 13.635s1.232-2.115 2.252-3.084c.566-.537.913-.883.882-1.289-.023-.308-.28-.473-.835-.337-1.104.27-1.697 1.381-2.078 2.625-.271.876-.222 2.084-.222 2.084z" opacity=".2" style="fill:var(--color6, #00ffe3)"/>
      <path fill="#fff" d="M23.693 13.287h-.006c-.011-.002-.02-.008-.027-.016s-.009-.02-.007-.03c.439-2.749 2.106-3.784 2.607-4.036.01-.005.021-.006.031-.002s.019.01.023.02c.002.005.004.01.004.015s0 .011-.002.016c-.002.005-.004.01-.008.014s-.008.007-.013.009c-.492.248-2.13 1.265-2.563 3.977-.002.009-.007.018-.014.024s-.017.009-.026.009z" style="fill:var(--color4, #fff)"/>
      <path fill="#11b5e4" d="m30.451 7.392-.267-.497.214-.615v-.376l-.656.376v.376l.282.486a.035.035 0 0 0 .019.017l.407.233z" style="fill:var(--color7, #11b5e4)"/>
      <path d="m30.451 7.392-.267-.497.214-.615v-.376l-.656.376v.376l.282.486a.035.035 0 0 0 .019.017l.407.233z" opacity=".1" style="fill:var(--color8, #000)"/>
      <path fill="#11b5e4" d="m28.929 5.056 1.806-1.043a.445.445 0 0 1 .394 0l.162.092a.425.425 0 0 1 .198.339v1.454a.438.438 0 0 1-.197.339L29.484 7.28a.445.445 0 0 1-.394 0l-.162-.092a.432.432 0 0 1-.196-.339V5.393a.438.438 0 0 1 .198-.337z" style="fill:var(--color7, #11b5e4)"/>
      <path fill="#fff" d="m28.929 5.056 1.806-1.043a.445.445 0 0 1 .394 0l.162.092a.425.425 0 0 1 .198.339v1.454a.438.438 0 0 1-.197.339L29.484 7.28a.445.445 0 0 1-.394 0l-.162-.092a.432.432 0 0 1-.196-.339V5.393a.438.438 0 0 1 .198-.337z" opacity=".3" style="fill:var(--color4, #fff)"/>
      <path fill="#11b5e4" d="M29.483 7.278c-.109.062-.197.012-.197-.113V5.711a.438.438 0 0 1 .197-.339l1.808-1.043c.109-.063.197-.012.197.113v1.454a.438.438 0 0 1-.197.339z" style="fill:var(--color7, #11b5e4)"/>
      <path fill="#11b5e4" d="M28.733 6.847a.424.424 0 0 0 .196.339l.162.092a.439.439 0 0 0 .359.015c-.092.035-.162-.017-.162-.128V5.711a.414.414 0 0 1 .058-.193l-.554-.321a.398.398 0 0 0-.057.193l-.002 1.457z" style="fill:var(--color7, #11b5e4)"/>
      <path d="M28.733 6.847a.424.424 0 0 0 .196.339l.162.092a.439.439 0 0 0 .359.015c-.092.035-.162-.017-.162-.128V5.711a.414.414 0 0 1 .058-.193l-.554-.321a.398.398 0 0 0-.057.193l-.002 1.457z" opacity=".1" style="fill:var(--color8, #000)"/>
      <path fill="#11b5e4" d="m30.154 6.892.282.485c.004.007.01.012.017.016s.015.005.023.004.016-.004.022-.009.011-.011.014-.019l.298-.855v-.376l-.657.376v.376z" style="fill:var(--color7, #11b5e4)"/>
      <path fill="#fff" d="m30.388 6.395-.202-.053c-.192-.051-.422-.16-.422-.407a.646.646 0 0 1 .312-.49.2.2 0 0 1 .199-.018.191.191 0 0 1 .111.165c.02-.16.151-.412.31-.504.173-.099.313-.04.313.132 0 .246-.229.619-.421.891l-.201.284z" style="fill:var(--color4, #fff)"/>
      <path fill="#ff7800" d="m3.679 11.21 1.808-1.039a.433.433 0 0 1 .394 0l.162.092a.432.432 0 0 1 .197.339v1.454a.425.425 0 0 1-.197.339l-1.806 1.039a.436.436 0 0 1-.394 0l-.162-.091a.44.44 0 0 1-.199-.342V11.55a.425.425 0 0 1 .198-.339z" style="fill:var(--color9, #ff7800)"/>
      <path fill="#fff" d="m3.679 11.21 1.808-1.039a.433.433 0 0 1 .394 0l.162.092a.432.432 0 0 1 .197.339v1.454a.425.425 0 0 1-.197.339l-1.806 1.039a.436.436 0 0 1-.394 0l-.162-.091a.44.44 0 0 1-.199-.342V11.55a.425.425 0 0 1 .198-.339z" opacity=".3" style="fill:var(--color4, #fff)"/>
      <path fill="#ff7800" d="m5.2 13.547-.267-.498.215-.615v-.376l-.657.38v.376l.283.481a.04.04 0 0 0 .019.017l.407.235z" style="fill:var(--color9, #ff7800)"/>
      <path d="m5.2 13.547-.267-.498.215-.615v-.376l-.657.38v.376l.283.481a.04.04 0 0 0 .019.017l.407.235z" opacity=".1" style="fill:var(--color8, #000)"/>
      <path fill="#ff7800" d="M4.237 13.433c-.109.063-.197.012-.197-.113v-1.454a.43.43 0 0 1 .197-.337l1.809-1.043c.108-.062.196-.011.196.113v1.454a.425.425 0 0 1-.197.339z" style="fill:var(--color9, #ff7800)"/>
      <path fill="#ff7800" d="M3.482 12.999a.438.438 0 0 0 .197.339l.162.091a.443.443 0 0 0 .36.016c-.093.035-.162-.018-.162-.129v-1.451a.401.401 0 0 1 .057-.193l-.553-.317a.386.386 0 0 0-.058.193l-.003 1.451z" style="fill:var(--color9, #ff7800)"/>
      <path d="M3.482 12.999a.438.438 0 0 0 .197.339l.162.091a.443.443 0 0 0 .36.016c-.093.035-.162-.018-.162-.129v-1.451a.401.401 0 0 1 .057-.193l-.553-.317a.386.386 0 0 0-.058.193l-.003 1.451z" opacity=".1" style="fill:var(--color8, #000)"/>
      <path fill="#ff7800" d="m4.904 13.047.282.481c.004.007.01.012.017.016s.015.005.023.004.016-.004.022-.009.011-.011.014-.019l.298-.855v-.376l-.656.376v.38z" style="fill:var(--color9, #ff7800)"/>
      <path fill="#fff" d="M4.455 12.179a.405.405 0 0 0-.185.321c0 .117.081.16.185.106a.412.412 0 0 0 .185-.321c.001-.117-.08-.168-.185-.106zm.682-.393a.405.405 0 0 0-.186.321c0 .117.081.165.186.106a.412.412 0 0 0 .185-.32c0-.117-.083-.165-.185-.106zm.682-.391a.412.412 0 0 0-.185.32c0 .117.081.161.185.106a.405.405 0 0 0 .185-.321c0-.118-.082-.165-.185-.106z" style="fill:var(--color4, #fff)"/>
      <path fill="#37474f" d="m22.851.677-7.854 4.501a.765.765 0 0 0-.35.601v17.266c0 .221.157.311.35.201l7.854-4.501a.774.774 0 0 0 .35-.601V.878c0-.221-.157-.311-.35-.201z" style="fill:var(--color5, #37474f)"/>
      <path fill="#455a64" d="M14.997 5.179 22.851.678c.173-.099.316-.037.344.136a.773.773 0 0 0-.344-.537l-.285-.16a.77.77 0 0 0-.7 0l-7.854 4.499a.713.713 0 0 0-.247.259l.985.562a.716.716 0 0 1 .247-.257z" style="fill:var(--color10, #455a64)"/>
      <path fill="#263238" d="M13.662 22.482a.768.768 0 0 0 .35.602l.285.16a.796.796 0 0 0 .64.028c-.162.062-.29-.03-.29-.229V5.777a.697.697 0 0 1 .103-.343l-.985-.562a.719.719 0 0 0-.103.343v17.266z" style="fill:var(--color11, #263238)"/>
      <path fill="#fafafa" d="m15.185 7.329 7.478-4.286c.116-.067.21-.013.21.12v13.072c-.004.072-.025.143-.062.205s-.087.116-.148.156l-7.478 4.285c-.116.067-.21.013-.21-.12V7.69a.463.463 0 0 1 .21-.362z" style="fill:var(--color12, #fafafa)"/>
      <path fill="#263238" d="M18.845 3.598c-.036.023-.065.055-.087.091s-.034.078-.036.12c0 .08.055.11.123.071a.27.27 0 0 0 .123-.212c0-.078-.055-.109-.123-.071zM17.682 4.84a.547.547 0 0 0-.242.423c0 .156.11.219.242.141a.535.535 0 0 0 .246-.424c0-.156-.111-.219-.246-.141zm.602-.053c0 .104.081.144.175.088l1.616-.928a.37.37 0 0 0 .174-.289c0-.103-.081-.143-.174-.087l-1.616.928a.368.368 0 0 0-.175.288z" style="fill:var(--color11, #263238)"/>
      <path fill="#37474f" d="M14.207 7.846a.425.425 0 0 1 .198.339c0 .124-.088.175-.197.113a.42.42 0 0 1-.196-.339c.002-.124.088-.174.196-.112zm0 1.506a.432.432 0 0 1 .197.339c0 .125-.088.176-.197.113a.432.432 0 0 1-.195-.335c0-.128.086-.179.195-.117z" style="fill:var(--color5, #37474f)"/>
      <path fill="#455a64" d="M14.146 7.875a.432.432 0 0 1 .197.339c0 .125-.088.176-.197.113a.432.432 0 0 1-.197-.339c0-.124.089-.175.197-.113zm0 1.507a.432.432 0 0 1 .197.339c0 .125-.088.176-.197.113a.432.432 0 0 1-.197-.339c0-.125.089-.176.197-.113z" style="fill:var(--color10, #455a64)"/>
      <path fill="#263238" d="M18.924 19.316a1.074 1.074 0 0 0-.485.835c0 .308.217.433.485.279a1.074 1.074 0 0 0 .485-.836c.001-.308-.216-.433-.485-.278z" style="fill:var(--color11, #263238)"/>
      <path fill="#fff" d="M16.735 20.695c-.069 0-.076-.08-.076-.109V7.515a.416.416 0 0 1 .189-.326l7.478-4.286a.16.16 0 0 1 .074-.022c.069 0 .076.075.076.108v13.072a.42.42 0 0 1-.189.326l-7.478 4.286a.147.147 0 0 1-.074.023z" style="fill:var(--color4, #fff)"/>
      <path fill="#37474f" d="M24.401 2.921c.031 0 .035.043.035.068v13.072a.387.387 0 0 1-.17.291l-7.478 4.286a.124.124 0 0 1-.053.018c-.031 0-.036-.043-.036-.069V7.516a.384.384 0 0 1 .17-.291l7.478-4.286a.112.112 0 0 1 .053-.018zm0-.08a.198.198 0 0 0-.094.028l-7.478 4.286a.464.464 0 0 0-.21.362v13.071c0 .095.048.149.116.149a.185.185 0 0 0 .094-.029l7.478-4.285a.46.46 0 0 0 .21-.362V2.989c0-.094-.048-.148-.116-.148z" style="fill:var(--color5, #37474f)"/>
      <path fill="#37474f" d="M24.515 2.989c0-.133-.094-.187-.21-.12l-7.478 4.286a.464.464 0 0 0-.21.362v1.071l7.898-4.526V2.991z" style="fill:var(--color5, #37474f)"/>
      <path d="M24.515 2.989c0-.133-.094-.187-.21-.12l-7.478 4.286a.464.464 0 0 0-.21.362v1.071l7.898-4.526V2.991z" opacity=".1" style="fill:var(--color8, #000)"/>
      <path fill="#fff" d="M17.443 7.401c-.013-.005-.028-.007-.042-.005s-.027.007-.039.015a.318.318 0 0 0-.144.247.077.077 0 0 0 .031.075c.013.005.028.007.042.005s.028-.008.039-.016c.041-.027.076-.064.1-.107s.039-.091.043-.14c.002-.014 0-.029-.005-.042s-.014-.025-.026-.034z" style="fill:var(--color4, #fff)"/>
      <path fill="#fff" d="m17.614 7.128-.018.01v-.036c0-.051-.035-.071-.081-.046l-.339.194a.179.179 0 0 0-.081.137v.037l-.019.01a.237.237 0 0 0-.106.183v.327c0 .067.048.096.107.062l.536-.307c.031-.02.057-.047.075-.079s.029-.068.031-.105v-.328c.002-.066-.046-.093-.105-.059zm-.252.648a.176.176 0 0 1-.086.026.12.12 0 0 1-.056-.014.14.14 0 0 1-.063-.129.37.37 0 0 1 .174-.299.136.136 0 0 1 .143-.012.14.14 0 0 1 .062.129.381.381 0 0 1-.173.3zm.242-.436c-.027.015-.049 0-.049-.029.001-.017.006-.034.014-.048s.02-.027.035-.037c.027-.016.05 0 .05.028-.001.017-.005.034-.013.048s-.02.028-.034.037h-.003zm6.481-4.021-.523.299c-.03.02-.055.046-.074.077s-.029.066-.031.102v.321c0 .065.047.092.104.059l.311-.178.122.121c.003.003.006.004.01.005s.008 0 .012-.001.007-.004.009-.007a.02.02 0 0 0 .003-.011v-.197l.056-.032a.23.23 0 0 0 .107-.179v-.321c0-.065-.049-.091-.107-.059z" style="fill:var(--color4, #fff)"/>
      <path fill="#37474f" d="M17.626 8.395c.273-.154.494-.029.494.281a1.08 1.08 0 0 1-.495.844c-.274.16-.495.031-.495-.281.009-.17.059-.335.145-.481s.206-.271.35-.363zm.984-.378 1.641-.94c.097-.055.175-.016.175.087a.38.38 0 0 1-.175.289l-1.641.94c-.096.055-.175.016-.175-.087a.38.38 0 0 1 .175-.289z" style="fill:var(--color5, #37474f)"/>
      <path fill="#fff" d="m18.61 8.017 1.641-.94c.097-.055.175-.016.175.087a.38.38 0 0 1-.175.289l-1.641.94c-.096.055-.175.016-.175-.087a.38.38 0 0 1 .175-.289z" opacity=".49" style="fill:var(--color4, #fff)"/>
      <path fill="#37474f" d="m18.555 8.684 1.125-.642c.066-.038.119-.011.119.06a.25.25 0 0 1-.12.198l-1.125.642c-.066.038-.12.01-.12-.061a.25.25 0 0 1 .12-.198z" style="fill:var(--color5, #37474f)"/>
      <path fill="#fff" d="m18.555 8.684 1.125-.642c.066-.038.119-.011.119.06a.25.25 0 0 1-.12.198l-1.125.642c-.066.038-.12.01-.12-.061a.25.25 0 0 1 .12-.198z" opacity=".49" style="fill:var(--color4, #fff)"/>
      <path fill="#37474f" d="M17.626 16.832c.273-.154.494-.028.494.281a1.08 1.08 0 0 1-.495.844c-.274.16-.495.031-.495-.281.009-.17.059-.335.145-.481s.206-.271.35-.363zm.984-.378 1.641-.941c.097-.055.175-.016.175.088-.004.058-.022.115-.053.165s-.072.092-.122.124l-1.641.941c-.096.055-.175.016-.175-.088a.377.377 0 0 1 .175-.288z" style="fill:var(--color5, #37474f)"/>
      <path fill="#fff" d="m18.61 16.454 1.641-.941c.097-.055.175-.016.175.088-.004.058-.022.115-.053.165s-.072.092-.122.124l-1.641.941c-.096.055-.175.016-.175-.088a.377.377 0 0 1 .175-.288z" opacity=".49" style="fill:var(--color4, #fff)"/>
      <path fill="#37474f" d="m18.555 17.12 1.125-.642c.066-.038.119-.011.119.06a.25.25 0 0 1-.12.198l-1.125.642c-.066.038-.12.01-.12-.06a.25.25 0 0 1 .12-.198z" style="fill:var(--color5, #37474f)"/>
      <path fill="#fff" d="m18.555 17.12 1.125-.642c.066-.038.119-.011.119.06a.25.25 0 0 1-.12.198l-1.125.642c-.066.038-.12.01-.12-.06a.25.25 0 0 1 .12-.198z" opacity=".49" style="fill:var(--color4, #fff)"/>
      <path fill="#f5f5f5" d="m17.472 9.987 6.214-3.563c.097-.055.175-.01.175.1v6.163a.39.39 0 0 1-.175.302l-6.214 3.583c-.097.055-.175.01-.175-.1v-6.185a.382.382 0 0 1 .175-.301z" style="fill:var(--color1, #f5f5f5)"/>
      <path fill="#37474f" d="M19.753 11.399a.153.153 0 0 0-.222-.035.153.153 0 0 0-.049.066l-2.181 4.115v.928c0 .111.081.156.175.1l6.214-3.565c.051-.033.093-.078.124-.13s.048-.111.051-.172v-2.054l-1.18-2.082c-.065-.116-.157-.109-.204.015l-1.571 4.136-1.154-1.323z" style="fill:var(--color5, #37474f)"/>
      <path fill="#00564c" d="M19.753 11.399a.153.153 0 0 0-.222-.035.153.153 0 0 0-.049.066l-2.181 4.115v.928c0 .111.081.156.175.1l6.214-3.565c.051-.033.093-.078.124-.13s.048-.111.051-.172v-2.054l-1.18-2.082c-.065-.116-.157-.109-.204.015l-1.571 4.136-1.154-1.323z" opacity=".09" style="fill:var(--color13, #00564c)"/>
      <path fill="#37474f" d="M17.953 11.655c.548-.312.993-1.073.993-1.699 0-.321-.116-.541-.301-.642l-1.172.672a.386.386 0 0 0-.175.301v1.456c.175.078.403.054.655-.088z" style="fill:var(--color5, #37474f)"/>
      <path fill="#fff" d="M17.953 11.655c.548-.312.993-1.073.993-1.699 0-.321-.116-.541-.301-.642l-1.172.672a.386.386 0 0 0-.175.301v1.456c.175.078.403.054.655-.088z" opacity=".36" style="fill:var(--color4, #fff)"/>
      <path fill="#37474f" d="m17.472 18.456 6.214-3.563c.097-.055.175-.016.175.088a.373.373 0 0 1-.175.288l-6.214 3.563c-.097.055-.175.016-.175-.088a.372.372 0 0 1 .174-.288z" style="fill:var(--color5, #37474f)"/>
      <path fill="#fff" d="m17.472 18.456 6.214-3.563c.097-.055.175-.016.175.088a.373.373 0 0 1-.175.288l-6.214 3.563c-.097.055-.175.016-.175-.088a.372.372 0 0 1 .174-.288z" opacity=".36" style="fill:var(--color4, #fff)"/>
      <path fill="#37474f" d="m17.472 19.208 6.214-3.561c.097-.055.175-.016.175.088a.373.373 0 0 1-.175.288l-6.214 3.563c-.097.055-.175.016-.175-.088a.372.372 0 0 1 .175-.29z" style="fill:var(--color5, #37474f)"/>
      <path fill="#fff" d="m17.472 19.208 6.214-3.561c.097-.055.175-.016.175.088a.373.373 0 0 1-.175.288l-6.214 3.563c-.097.055-.175.016-.175-.088a.372.372 0 0 1 .175-.29z" opacity=".36" style="fill:var(--color4, #fff)"/>
      <path fill="#fafafa" d="m18.43 6.633 4.433-2.54c.136-.08.242-.014.242.14a.53.53 0 0 1-.242.42l-4.432 2.532c-.136.08-.242.016-.242-.136a.536.536 0 0 1 .242-.417z" style="fill:var(--color12, #fafafa)"/>
      <path fill="#f28f8f" d="m31.455 11.449.314.572-.489.416-.448-.705.623-.283z" style="fill:var(--color14, #f28f8f)"/>
      <path fill="#e0e0e0" d="M30.275 10.174c.312 0 .655.116.773.359l.485.998s-.276.401-.712.372l-.545-1.729z" style="fill:var(--color15, #e0e0e0)"/>
      <path fill="#37474f" d="M31.43 12.11c.091-.168.114-.177.168-.213s.387-.086.525-.098c.162-.014.221.016.175.155a6.9 6.9 0 0 1-.456 1.016c-.044.057-.052.11-.235.128-.17.016-.384.026-.448.029s-.15.02-.095-.165c.072-.209.156-.413.25-.612.07-.153.114-.24.114-.24z" style="fill:var(--color5, #37474f)"/>
      <path fill="#263238" d="M27.79 17.787c-.081-.04-.127.058-.197.136a.58.58 0 0 0-.138.205c-.017.092.068.241.162.321s.202.139.236.315a.432.432 0 0 0 .287.361c.202.087.473.059.565 0 .108-.07.009-.147-.143-.363-.199-.282-.354-.481-.354-.749l-.418-.227z" style="fill:var(--color11, #263238)"/>
      <path fill="#ffa8a7" d="m27.949 17.555-.162.241c-.035.049-.049.11-.038.169s.044.112.093.147l.005.004c.05.029.108.04.165.032s.109-.037.147-.08l.255-.276-.466-.236z" style="fill:var(--color16, #ffa8a7)"/>
      <path fill="#37474f" d="M30.95 12.914c.01.303-.076 1.529-.287 2.07s-.333.879-.399.992-1.978 1.96-1.978 1.96-.323-.023-.376-.335c0 0 .783-1.322.953-1.594s.771-.687.771-.687l-.055-2.372 1.371-.035z" style="fill:var(--color5, #37474f)"/>
      <path fill="#ffa8a7" d="M28.118 12.619c0-.052.162-.652.242-.928l.592.202-.139.437-.521.535c-.055-.011-.104-.042-.137-.088s-.046-.102-.038-.157zm2.411 6.75.404-.091-.134-.584-.404.091.134.584z" style="fill:var(--color16, #ffa8a7)"/>
      <path fill="#37474f" d="M30.95 12.914h-1.939a6.707 6.707 0 0 0-.073.849c-.015.834.767 2.35.767 2.35-.038.337-.021.678.05 1.01.171.664.638 1.79.638 1.79s.293.041.438-.127c0 0-.259-2.284-.328-2.869-.075-.634-.269-1.79-.269-1.79.128-.127.244-.265.347-.412.18-.238.306-.512.368-.802z" style="fill:var(--color5, #37474f)"/>
      <path fill="#11b5e4" d="M29.635 10.191c-.372.089-.878.205-1.024.604s-.357 1.108-.357 1.108c.081.14.529.257.685.176l.073-.241v1.074c.291.314 1.304.46 1.939 0v-2.006c0-.321-.179-.706-.675-.734l-.641.019z" style="fill:var(--color7, #11b5e4)"/>
      <path fill="#e0e0e0" d="m29.012 11.841.187-.583-.187.844v-.261z" style="fill:var(--color15, #e0e0e0)"/>
      <path fill="#263238" d="M29.495 8.552a.223.223 0 0 0-.183.064c-.081.08-.062.227 0 .566l.242.027-.06-.658zm1.415-.098a.383.383 0 0 0 .149-.028c.074-.043.094.042.052.115a.347.347 0 0 1-.281.187c0-.01-.069-.189-.069-.189l.149-.084z" style="fill:var(--color11, #263238)"/>
      <path fill="#ffa8a7" d="M29.609 9.21c-.036.022-.087-.047-.132-.093-.017-.02-.04-.035-.065-.044s-.052-.012-.078-.007a.15.15 0 0 0-.119.093c-.074.154.094.359.192.427a.174.174 0 0 0 .202.017l.026.59a.644.644 0 0 0 .477.361c.349.046.277-.241.162-.379v-.214a.848.848 0 0 0 .266.013c.045-.012.154-.142.224-.288.149-.292.182-.63.093-.945-.125-.528-.696-.544-1.037-.331s-.211.802-.211.802z" style="fill:var(--color16, #ffa8a7)"/>
      <path fill="#263238" d="M29.609 9.27c-.018 0-.086-.113-.132-.153-.062-.056.018-.562.018-.562a.342.342 0 0 1 .061-.321c.123-.128.36-.107.534-.112a1.58 1.58 0 0 0 .622-.124c.247-.107.266-.119.296-.011a.596.596 0 0 1-.105.52l-.081.13s-.075.063-.305.091-.623-.095-.672-.102c-.067-.009-.081.055-.117.231-.031.152-.057.413-.118.414z" style="fill:var(--color11, #263238)"/>
      <path fill="#263238" d="m29.496 8.592-.218-.116a.116.116 0 0 1 .07-.06.124.124 0 0 1 .093.006.128.128 0 0 1 .056.171z" style="fill:var(--color11, #263238)"/>
      <path fill="#f28f8f" d="M30.274 9.96a2.549 2.549 0 0 1-.436-.124.383.383 0 0 1-.156-.153.494.494 0 0 0 .089.181c.081.105.503.182.503.182v-.085z" style="fill:var(--color14, #f28f8f)"/>
      <path fill="#263238" d="M30.285 9.199c0 .017-.006.034-.019.046s-.029.02-.046.02c-.009 0-.017-.002-.025-.006s-.015-.009-.021-.015a.064.064 0 0 1-.018-.047c0-.017.006-.034.019-.046s.029-.02.046-.02c.009 0 .017.002.025.006s.015.009.021.015a.064.064 0 0 1 .018.047zm-.069-.244-.138.08c-.005-.009-.009-.02-.01-.03s0-.021.003-.032a.082.082 0 0 1 .04-.048c.018-.009.039-.011.059-.006s.036.018.047.036z" style="fill:var(--color11, #263238)"/>
      <path fill="#f28f8f" d="m30.245 9.629.148.055c-.007.019-.022.035-.04.044s-.04.01-.06.004c-.01-.004-.019-.009-.027-.016s-.014-.016-.019-.025a.082.082 0 0 1-.002-.062z" style="fill:var(--color14, #f28f8f)"/>
      <path fill="#263238" d="m30.862 9.009-.126-.096a.082.082 0 0 1 .11-.017c.009.006.016.014.021.023s.009.019.011.03c.001.011.001.021-.002.032s-.008.02-.014.028zm-.039.171c0 .017-.006.034-.019.046s-.029.02-.046.02c-.009 0-.017-.002-.025-.006s-.015-.009-.021-.015a.064.064 0 0 1-.018-.047c0-.017.006-.034.019-.046s.029-.02.046-.02c.018.001.034.008.046.021s.019.029.018.047z" style="fill:var(--color11, #263238)"/>
      <path fill="#f28f8f" d="m30.518 9.172-.061.382.212-.025-.152-.357z" style="fill:var(--color14, #f28f8f)"/>
      <path fill="#263238" d="m30.887 19.083-.013-.058c.042.008.224.307.404.437.197.142.368.226.456.29.118.086-.052.262-.343.278-.144.007-.404-.036-.485-.112s-.139-.202-.204-.257-.193-.103-.238-.172a.51.51 0 0 1-.025-.216c0-.075.006-.16.032-.156l.01.043a.508.508 0 0 0 .242.054c.07-.003.197-.018.163-.131zm-.434-3.554s-.172-1.214-.218-1.402c.138-.075.267-.166.383-.272-.08.114-.168.222-.262.325l.097 1.349zm-1.038-.042s.207.511.291.624c0 0-.021.39-.019.469l-.108.094a2.447 2.447 0 0 1 .048-.526 3.144 3.144 0 0 1-.212-.661z" style="fill:var(--color11, #263238)"/>
      <path fill="#ffa8a7" d="M28.816 12.329s1.63.173 1.821.115.448-.247.583-.327c.135-.08.238-.085.238-.052s-.118.212-.145.286c-.027.075.127.075.33.028s.284-.16.336-.095c.053.066-.112.401-.448.527s-.586.042-.864.054c-.278.012-1.99.12-2.375 0a.336.336 0 0 1 .133-.327 1.21 1.21 0 0 1 .391-.209zm-9.034 7.731c.004-.052.104-.614.171-.928l.665.202-.107.441-.553.531a.22.22 0 0 1-.177-.245z" style="fill:var(--color16, #ffa8a7)"/>
      <path fill="#263238" d="M21.239 15.306h.323c.238 0 .467.094.636.262s.263.395.263.631v2.276h-2.122v-2.276c0-.237.095-.464.263-.631s.397-.262.636-.262z" style="fill:var(--color11, #263238)"/>
      <path fill="#f28f8f" d="m22.998 18.88.314.572-.49.416-.448-.705.623-.282z" style="fill:var(--color14, #f28f8f)"/>
      <path fill="#455a64" d="M21.819 17.604c.312 0 .655.116.773.359l.485.998s-.276.401-.712.373l-.545-1.73z" style="fill:var(--color10, #455a64)"/>
      <path fill="#263238" d="M22.071 27.503c.107.143.228.275.36.395a.176.176 0 0 1 .049.063c.014.042.032.142-.155.183a.677.677 0 0 1-.548-.118c-.137-.109-.12-.301-.246-.427-.094-.092-.221-.128-.291-.241-.049-.08-.023-.176.022-.294s.076-.225.119-.21l-.015.059c.044.094.323.153.46.108.073.164.155.325.246.481z" style="fill:var(--color11, #263238)"/>
      <path fill="#ffa8a7" d="M22.181 27.641a1.901 1.901 0 0 1-.11-.138 3.367 3.367 0 0 1-.192-.367.33.33 0 0 1-.018-.241l.092-.309-.485-.111-.105.433c-.023.099.049.197.181.339s.284.457.404.546c.12.089.219.098.28.067s.077-.059-.049-.221z" style="fill:var(--color16, #ffa8a7)"/>
      <path fill="#263238" d="M20.767 27.775v-.068c.027.08.152.422.341.594.151.136.356.294.408.445s-.285.211-.426.186a.867.867 0 0 1-.49-.261c-.081-.099-.133-.216-.191-.294s-.191-.16-.221-.254a.554.554 0 0 1 .027-.249c.023-.08.046-.176.075-.169v.056a.385.385 0 0 0 .242.08c.066 0 .235-.015.234-.068z" style="fill:var(--color11, #263238)"/>
      <path fill="#ffa8a7" d="m21.244 28.42-.137-.12a1.376 1.376 0 0 1-.291-.461.649.649 0 0 1-.05-.25v-.27h-.477v.452c.023.099.242.36.366.531a.698.698 0 0 0 .431.286c.182.024.276-.032.157-.167z" style="fill:var(--color16, #ffa8a7)"/>
      <path fill="#37474f" d="M20.385 20.413c-.369.802.014 3.628.014 3.628-.011.131-.162.387-.216.963-.066.677.103 2.377.103 2.377a.507.507 0 0 0 .485.019s.455-2.56.54-3.234l.273-2.16.404 2.108a2.738 2.738 0 0 0-.267.526c-.096.298-.291 1.994-.291 1.994a.6.6 0 0 0 .493.143s.933-2.327.975-2.802c.025-.285-.393-3.677-.393-3.677l-2.12.114z" style="fill:var(--color5, #37474f)"/>
      <path fill="#263238" d="m21.581 22.002.065-.464s.508-.104.738-.321a1.316 1.316 0 0 1-.6.396l-.068.448.081 1.037-.216-1.097z" style="fill:var(--color11, #263238)"/>
      <path fill="#f03e3d" d="M21.041 17.626a.938.938 0 0 0-.626.509.803.803 0 0 0-.023.607l.326.949s-.154.372-.334.722c.83.46 1.865.218 2.114-.117.01-.071-.004-.392.016-.757.021-.389.075-.829.014-1.069-.115-.447-.329-.866-.755-.866l-.732.022z" style="fill:var(--color17, #f03e3d)"/>
      <path fill="#455a64" d="M20.914 17.626c-.283.039-.698.096-.842.764s-.187.912-.187.912a.938.938 0 0 0 .702.267l.146-.514.181-1.429z" style="fill:var(--color10, #455a64)"/>
      <path fill="#263238" d="M21.075 18.189a.382.382 0 0 1-.263-.108.362.362 0 0 1-.109-.261v-1.074h.372v1.444z" style="fill:var(--color11, #263238)"/>
      <path fill="#ffa8a7" d="M22.114 15.732c.112.066.25.346.237.932-.011.497-.174.621-.255.656s-.238.014-.391-.012v.298s.211.241.198.381-.305.169-.503.035a1.278 1.278 0 0 1-.323-.337v-.722a.191.191 0 0 1-.271.026c-.169-.111-.175-.387-.077-.481s.309-.067.349.069c.2-.009.394-.067.566-.169.127-.068.236-.164.319-.282s.135-.253.154-.395z" style="fill:var(--color16, #ffa8a7)"/>
      <path fill="#263238" d="M21.791 16.54c0 .012-.003.024-.01.035s-.016.018-.028.023a.063.063 0 0 1-.086-.043c-.003-.012-.002-.024.002-.036s.012-.022.022-.029a.061.061 0 0 1 .059-.008.057.057 0 0 1 .021.013c.006.006.011.013.015.02s.005.016.006.024z" style="fill:var(--color11, #263238)"/>
      <path fill="#f28f8f" d="m21.808 16.961.146.047a.074.074 0 0 1-.095.053.08.08 0 0 1-.051-.098z" style="fill:var(--color14, #f28f8f)"/>
      <path fill="#263238" d="m22.308 16.347-.127-.087a.077.077 0 0 1 .079-.034c.01.002.019.006.028.012a.078.078 0 0 1 .021.109zm-.03.147c.001.017-.005.034-.016.046s-.027.021-.044.022a.067.067 0 0 1-.067-.062c0-.008.001-.016.004-.024s.007-.015.013-.021c.006-.006.012-.011.02-.015s.016-.006.024-.006.017.001.024.003a.062.062 0 0 1 .036.032.048.048 0 0 1 .006.024z" style="fill:var(--color11, #263238)"/>
      <path fill="#f28f8f" d="m21.981 16.458.011.376.2-.062-.21-.315zm-.277.85c-.162-.021-.493-.116-.544-.246a.33.33 0 0 0 .116.166c.099.084.428.18.428.18v-.1z" style="fill:var(--color14, #f28f8f)"/>
      <path fill="#37474f" d="M22.973 19.54c.091-.169.114-.176.169-.213s.387-.087.525-.099c.162-.014.221.016.175.156a7.01 7.01 0 0 1-.459 1.015c-.044.058-.052.111-.235.128s-.385.026-.448.03-.15.019-.094-.165c.072-.208.155-.413.25-.612l.117-.24z" style="fill:var(--color5, #37474f)"/>
      <path fill="#ffa8a7" d="M20.512 19.778s1.478.155 1.669.096.448-.249.587-.327c.138-.079.238-.085.238-.053s-.118.213-.145.286c-.027.074.128.075.33.028s.284-.16.337-.095c.053.066-.112.401-.448.527s-.586.043-.864.054c-.278.011-1.869.135-2.255.014a.336.336 0 0 1 .133-.327c.125-.095.267-.165.419-.205z" style="fill:var(--color16, #ffa8a7)"/>
      <path fill="#37474f" d="M20.618 19.401c.063-.17.117-.344.162-.521 0 0-.027.387-.137.595l-.025-.075z" style="fill:var(--color5, #37474f)"/>
      <path fill="#f28f8f" d="m8.662 14.629-.263.563.489.416.423-.709-.649-.27z" style="fill:var(--color14, #f28f8f)"/>
      <path fill="#37474f" d="M9.868 13.341c-.312 0-.655.116-.773.359l-.485.999s.275.401.713.372l.545-1.73z" style="fill:var(--color5, #37474f)"/>
      <path fill="#ffa8a7" d="M11.22 22.278h-.431v.623h.431v-.623zm-1.517-.771-.431.015.022.623.431-.015-.022-.623z" style="fill:var(--color16, #ffa8a7)"/>
      <path fill="#37474f" d="M11.191 16.191c0 .409.053 3.054.053 3.054.011.117.121.335.097.786-.032.614-.086 2.319-.086 2.319s-.202.199-.485 0c0 0-.391-2.317-.468-2.925a65.98 65.98 0 0 1-.182-1.972l-.4 1.697s.07.401.086.68-.074 1.909-.074 1.909a.478.478 0 0 1-.469.018s-.346-2.377-.39-2.631.303-2.934.303-2.934h2.013z" style="fill:var(--color5, #37474f)"/>
      <path fill="#02897a" d="M10.542 13.36h.006c.185.046.349.153.466.302s.181.334.18.523v2.006c-.302.327-1.356.481-2.02 0v-2.086c0-.333.187-.734.701-.764l.666.018z" style="fill:var(--color3, #02897a)"/>
      <path fill="#263238" d="M10.688 11.653c.035-.004.07 0 .103.012s.063.03.087.055c.081.08.065.237 0 .589l-.252.029.062-.684zm-1.472-.098a.408.408 0 0 1-.158-.031c-.081-.044-.098.043-.056.119a.365.365 0 0 0 .293.194c0-.01.072-.195.072-.195l-.152-.086z" style="fill:var(--color11, #263238)"/>
      <path fill="#ffa8a7" d="M10.569 12.338c.038.022.091-.049.137-.097.018-.021.041-.037.067-.046s.054-.012.081-.008a.163.163 0 0 1 .124.098c.081.161-.098.374-.2.444a.178.178 0 0 1-.21.018l-.027.613a.65.65 0 0 1-.497.374c-.363.049-.288-.248-.169-.394v-.223a.846.846 0 0 1-.275.014c-.048-.013-.162-.149-.233-.3-.081-.17-.217-.472-.096-.983.13-.55.727-.566 1.078-.345s.22.834.22.834z" style="fill:var(--color16, #ffa8a7)"/>
      <path fill="#263238" d="M10.569 12.4c.019 0 .09-.117.137-.161.065-.059-.019-.587-.019-.587s.065-.2-.062-.333c-.128-.133-.376-.111-.557-.117a1.645 1.645 0 0 1-.646-.129c-.257-.111-.276-.123-.308-.012a.615.615 0 0 0 .109.541l.128.047s.069.061.309.09c.221.016.444.012.664-.012.069-.01.081.057.122.241.032.161.06.432.123.433z" style="fill:var(--color11, #263238)"/>
      <path fill="#263238" d="m10.687 11.695.227-.121a.124.124 0 0 0-.171-.057.136.136 0 0 0-.055.178z" style="fill:var(--color11, #263238)"/>
      <path fill="#f28f8f" d="M9.877 13.117c.155-.029.307-.072.453-.129a.39.39 0 0 0 .162-.16.532.532 0 0 1-.092.188c-.086.109-.524.189-.524.189l.001-.088z" style="fill:var(--color14, #f28f8f)"/>
      <path fill="#263238" d="M9.958 12.254c0 .013.005.026.012.037s.018.019.031.024c.012.005.026.006.039.003s.025-.01.034-.019.016-.022.018-.035a.067.067 0 0 0-.067-.08.068.068 0 0 0-.067.069zm.071-.252.145.08c.01-.02.012-.042.006-.064s-.021-.039-.04-.05a.085.085 0 0 0-.063-.006.082.082 0 0 0-.048.04z" style="fill:var(--color11, #263238)"/>
      <path fill="#f28f8f" d="m9.963 12.707-.153.058c.003.01.009.02.016.028s.016.015.025.02c.01.005.02.007.031.008s.022-.001.032-.005a.083.083 0 0 0 .049-.108z" style="fill:var(--color14, #f28f8f)"/>
      <path fill="#263238" d="m9.358 12.058.13-.101a.08.08 0 0 0-.053-.033.086.086 0 0 0-.061.016c-.017.014-.029.034-.032.056s.003.044.016.062zm.04.178c0 .018.007.035.019.048s.03.02.048.021c.018 0 .036-.008.048-.021s.02-.031.02-.049a.067.067 0 0 0-.017-.052.067.067 0 0 0-.079-.017c-.009.004-.017.009-.023.017s-.011.015-.014.024a.067.067 0 0 0-.003.028v.001z" style="fill:var(--color11, #263238)"/>
      <path fill="#f28f8f" d="m9.742 12.172-.023.402-.211-.071.233-.331z" style="fill:var(--color14, #f28f8f)"/>
      <path fill="#263238" d="M10.789 22.69v-.062c-.041.018-.137.381-.308.536-.136.123-.323.266-.369.401s.259.221.385.199c.148-.026.404-.129.468-.225s.095-.237.146-.307.173-.148.201-.229a.522.522 0 0 0-.025-.225c-.02-.075-.041-.16-.067-.152v.046a.337.337 0 0 1-.216.072c-.062.005-.216-.007-.216-.055zm-1.499-.678c-.023 0-.041.032-.09.085a.912.912 0 0 1-.254.181c-.162.08-.475.204-.617.267-.088.04-.081.146.007.207s.313.104.579.045c.145-.032.334-.165.452-.16s.343.006.431-.055c.088-.06.053-.189.028-.3s-.066-.305-.107-.297v.038c-.052.08-.316.11-.43.053v-.064z" style="fill:var(--color11, #263238)"/>
      <path fill="#37474f" d="M8.713 15.277c-.091-.169-.114-.177-.169-.213s-.387-.087-.525-.098c-.162-.014-.221.016-.175.155.125.35.277.69.456 1.016.044.057.053.11.235.128s.385.026.448.03.15.019.094-.165a5.904 5.904 0 0 0-.25-.612c-.066-.152-.114-.239-.114-.239z" style="fill:var(--color5, #37474f)"/>
      <path fill="#ffa8a7" d="M12.025 15.786a17.157 17.157 0 0 0-.242-.928l-.591.202.139.436.52.535a.217.217 0 0 0 .174-.245z" style="fill:var(--color16, #ffa8a7)"/>
      <path fill="#ffa8a7" d="M11.327 15.496s-1.63.173-1.822.115-.448-.249-.587-.327c-.138-.079-.238-.085-.238-.052s.118.212.145.286c.027.074-.128.075-.33.028s-.284-.161-.337-.095c-.053.066.112.401.448.527s.586.042.864.054c.278.011 1.99.12 2.375 0a.333.333 0 0 0-.133-.326 1.23 1.23 0 0 0-.387-.209z" style="fill:var(--color16, #ffa8a7)"/>
      <path fill="#455a64" d="M10.679 13.405c.256.084.764.127.928.677s.246.908.246.908c-.097.128-.485.277-.662.221l-.512-1.806z" style="fill:var(--color10, #455a64)"/>
      <path fill="#37474f" d="m11.191 15.212-.175-.618.175.87v-.252zM7.513 16.51c-.008.01-.077.124-.077.124l-.316.449-.308.458c-.01.014-.024.024-.04.03s-.034.006-.05.001l-.021-.007a7.045 7.045 0 0 1-.479-.203c-.17-.08-.162-.104-.162-.132a.397.397 0 0 1 0-.069c.035-.066.142-.23.287-.438.257-.371.38-.535.457-.642.011-.016.027-.027.046-.032s.038-.003.055.005c.138.046.418.165.566.225h.006c.079.043.036.228.035.231z" style="fill:var(--color5, #37474f)"/>
      <path fill="#37474f" d="m7.521 16.495-.081.138-.309.458-.323.447c-.01.014-.024.024-.04.03s-.034.006-.05.001l-.021-.007a7.045 7.045 0 0 1-.479-.203c-.17-.08-.162-.104-.162-.132a.397.397 0 0 1 0-.069c.162.071.673.311.69.303.04-.019.387-.571.571-.853.092-.14.133-.2.162-.248.005-.006.009-.012.011-.02s.003-.015.002-.023-.004-.015-.008-.021-.01-.012-.016-.016h-.006a.13.13 0 0 1 .069.096c.009.019.013.04.011.061s-.009.041-.021.059z" style="fill:var(--color5, #37474f)"/>
      <path d="m7.521 16.495-.081.138-.309.458-.323.447c-.01.014-.024.024-.04.03s-.034.006-.05.001l-.021-.007a7.045 7.045 0 0 1-.479-.203c-.17-.08-.162-.104-.162-.132a.397.397 0 0 1 0-.069c.162.071.673.311.69.303.04-.019.387-.571.571-.853.092-.14.133-.2.162-.248.005-.006.009-.012.011-.02s.003-.015.002-.023-.004-.015-.008-.021-.01-.012-.016-.016h-.006a.13.13 0 0 1 .069.096c.009.019.013.04.011.061s-.009.041-.021.059z" opacity=".1" style="fill:var(--color8, #000)"/>
      <path fill="#fafafa" d="m6.81 16.186.567.236-.604.892-.564-.258.601-.871z" style="fill:var(--color12, #fafafa)"/>
      <path fill="#ffa8a7" d="M6.65 19.295c.155-.044.389-.617.566-1.267s.269-.794.275-.998c.006-.205-.009-.473-.009-.473l-.307.445a.791.791 0 0 0-.081-.246c-.04-.08-.114-.144-.175-.096-.032.026.053.136.035.381-.002.098.008.196.029.291l-.57 1.372.238.59z" style="fill:var(--color16, #ffa8a7)"/>
      <path fill="#f28f8f" d="M4.355 16.45c-.18-.05-.333.045-.418.33a10.97 10.97 0 0 0-.323 1.635c-.024.198-.052.439.139.457.145.014.566-.066.639-.138.099-.095.081-.477.081-.477h-.218l.061-.392c.048-.307.12-.695.12-.695l-.081-.721z" style="fill:var(--color14, #f28f8f)"/>
      <path fill="#ffa8a7" d="m5.413 16.168-.074.643-.638.074.092-.853.62.136z" style="fill:var(--color16, #ffa8a7)"/>
      <path fill="#263238" d="M4.047 15.23c.053-.594.376-.838.627-.897.506-.118 1.005.051 1.212.401a.885.885 0 0 1 0 .695c-.11.249-1.836-.201-1.836-.201z" style="fill:var(--color11, #263238)"/>
      <path fill="#ffa8a7" d="M5.917 15.549s.091.245.067.263a.343.343 0 0 1-.119.021l.052-.284z" style="fill:var(--color16, #ffa8a7)"/>
      <path fill="#ffa8a7" d="M5.645 14.776c.12.103.323.289.269.802-.06.531-.189.675-.276.726-.058.035-.316-.026-.435-.095-.149-.087-.478-.313-.578-.617-.119-.358-.059-.785.201-.896a.851.851 0 0 1 .82.08z" style="fill:var(--color16, #ffa8a7)"/>
      <path fill="#263238" d="M5.793 14.79a.957.957 0 0 1-.345.746s-.075-.193-.242-.149-.162.263-.042.382c.031.034.071.058.116.07s.092.011.136-.002a.726.726 0 0 1-.204.401.953.953 0 0 1-.953-.329c-.369-.441-.26-1.14.317-1.346.204-.081.427-.103.643-.063s.416.141.576.291zM4.624 25.838l.276.38a.915.915 0 0 1-.4.08c-.246.01-.314-.071-.323-.09-.042-.089.023-.249.041-.386l.406.015z" style="fill:var(--color11, #263238)"/>
      <path fill="#263238" d="M4.883 26.034s.334-.022.566-.051.414.08.36.177c-.054.097-.182.173-.38.241-.169.057-.372.098-.549.15s-.297.116-.4.08c-.115-.039-.162-.085-.154-.168.025-.118.056-.234.093-.349l.465-.081z" style="fill:var(--color11, #263238)"/>
      <path fill="#f28f8f" d="M4.177 25.454s.041.345.044.42.339.098.404-.038l.011-.422-.459.04z" style="fill:var(--color14, #f28f8f)"/>
      <path fill="#ffa8a7" d="m4.515 25.667-.117.524s-.012.063.263.104.705-.143.779-.18c.074-.037.081-.112-.188-.097s-.365.016-.365.016l.088-.233-.46-.135z" style="fill:var(--color16, #ffa8a7)"/>
      <path fill="#455a64" d="M4.177 18.652c-.23.355-.448.668-.495 1.068-.099.844.225 1.808.293 2.433a1.12 1.12 0 0 0-.217.609c0 .258.419 2.692.419 2.692s.305.092.458-.04l.288-4.477-.152-.545-.595-1.74z" style="fill:var(--color10, #455a64)"/>
      <path fill="#37474f" d="m4.923 20.937-.152-.545a3.721 3.721 0 0 1-.822-.321s.156.281.601.435l.232.7.02 1.605.12-1.874z" style="fill:var(--color5, #37474f)"/>
      <path fill="#455a64" d="M4.177 18.652c-.123.199-.418.541-.355.868.076.401.291.676.949.871l.617 2.22s-.323.299-.419.583-.454 2.471-.454 2.471.11.178.457.135c0 0 1.212-2.743 1.293-2.92.103-.181.14-.392.103-.596-.039-.287-.451-3.434-.451-3.434l-1.74-.199z" style="fill:var(--color10, #455a64)"/>
      <path fill="#ffb900" d="M4.064 16.649a.306.306 0 0 1 .334-.194c.431.116 1.1.27 1.227.307 0 0-.057.824.439 1.114-.023.184-.149.976-.149.976s-.596.287-1.087.146c-.49-.141-.655-.345-.655-.345l.242-.397c-.053-.129-.255-.568-.386-.976a1.188 1.188 0 0 1 .036-.631z" style="fill:var(--color18, #ffb900)"/>
      <path fill="#e0e0e0" d="M4.355 18.099c.204.122.418.227.639.314a1.21 1.21 0 0 1-.572-.16l-.067-.153zm1.698-.285a.886.886 0 0 1-.413-.385.858.858 0 0 0 .412.636v-.25z" style="fill:var(--color15, #e0e0e0)"/>
      <path fill="#ffa8a7" d="M5.629 16.761c.271.08.439.106.585.236.192.172.391 1.143.431 1.343.07.347.148.709.072.871-.055.117-.354.205-.485-.174-.027-.08-.033-.117-.057-.189-.124-.363-.309-1.056-.309-1.056s-.366-.201-.237-1.03z" style="fill:var(--color16, #ffa8a7)"/>
      <path fill="#263238" d="M4.317 14.562c-.096.055-.27.109-.378.611a7.631 7.631 0 0 0-.157 1.277c.004.156.329.588 1.014.547s.934-.44.934-.44-.337-.136-.31-.722c0 0-.119.232-.444.116s-.658-1.389-.658-1.389z" style="fill:var(--color11, #263238)"/>
    </symbol>
    <symbol id="icon-Triangle" viewBox="0 0 29 32">
      <path d="M27.343 14.302c1.269.728 1.269 2.558 0 3.287L3.701 31.159c-1.263.725-2.838-.187-2.838-1.643V2.376C.863.92 2.438.008 3.701.733l23.642 13.57z"/>
    </symbol>
  </defs>
</svg>